<svg id="Equipo" xmlns="http://www.w3.org/2000/svg" width="24" height="24" viewBox="0 0 24 24">
  <defs>
    <style>
      .cls-1 {
        fill: none;
      }
    </style>
  </defs>
  <rect id="Rectangle_3804" data-name="Rectangle 3804" class="cls-1" width="24" height="24"/>
  <g id="Group_6124" data-name="Group 6124" transform="translate(1.2 1.2)">
    <path id="Path_7364" data-name="Path 7364" d="M7.2,10.8a3.521,3.521,0,0,0,3.6-3.6A3.521,3.521,0,0,0,7.2,3.6,3.521,3.521,0,0,0,3.6,7.2,3.521,3.521,0,0,0,7.2,10.8Zm0-5.4A1.722,1.722,0,0,1,9,7.2,1.722,1.722,0,0,1,7.2,9,1.722,1.722,0,0,1,5.4,7.2,1.722,1.722,0,0,1,7.2,5.4Zm.9,6.3H6.3a4.505,4.505,0,0,0-4.5,4.5v.9H3.6v-.9a2.7,2.7,0,0,1,2.7-2.7H8.1a2.7,2.7,0,0,1,2.7,2.7v.9h1.8v-.9A4.505,4.505,0,0,0,8.1,11.7Zm8.428-9.328L15.255,3.645a6.3,6.3,0,0,1,0,8.91l1.273,1.273a8.1,8.1,0,0,0,0-11.455Z"/>
    <path id="Path_7365" data-name="Path 7365" d="M13.981,4.918,12.709,6.192a2.7,2.7,0,0,1,0,3.816l1.273,1.274a4.5,4.5,0,0,0,0-6.365Z"/>
  </g>
</svg>
